<?xml version="1.0" standalone="no"?>
<!DOCTYPE svg PUBLIC "-//W3C//DTD SVG 20010904//EN"
 "http://www.w3.org/TR/2001/REC-SVG-20010904/DTD/svg10.dtd">
<svg version="1.0" xmlns="http://www.w3.org/2000/svg"
 width="200.000000pt" height="200.000000pt" viewBox="0 0 200.000000 200.000000"
 preserveAspectRatio="xMidYMid meet">

<g transform="translate(0.000000,200.000000) scale(0.100000,-0.100000)"
fill="#000000" stroke="none">
<path d="M0 1000 l0 -1000 1000 0 1000 0 0 1000 0 1000 -1000 0 -1000 0 0
-1000z m1445 441 c77 -35 105 -92 105 -211 l0 -80 35 0 36 0 -3 -152 -3 -153
-70 0 -70 0 -3 153 c-2 147 -2 152 18 152 19 0 20 6 20 86 0 69 -4 93 -20 119
-40 64 -44 65 -492 65 -384 0 -404 -1 -436 -20 -55 -34 -72 -73 -72 -167 0
-77 2 -83 20 -83 20 0 20 -5 18 -152 l-3 -153 -70 0 -70 0 -3 153 -3 152 36 0
35 0 0 73 c0 94 12 135 52 176 59 61 55 60 498 60 372 1 408 -1 445 -18z m-41
-122 l26 -20 0 -288 c0 -243 -2 -290 -16 -309 l-15 -22 -398 0 c-358 0 -400 2
-412 17 -11 12 -15 77 -17 299 -3 298 -1 317 41 334 12 5 189 9 393 9 361 1
372 0 398 -20z m216 -705 c0 -8 -13 -29 -29 -45 l-29 -29 -560 0 -560 0 -31
26 c-17 14 -31 34 -31 45 0 18 16 19 620 19 558 0 620 -2 620 -16z"/>
<path d="M650 1010 l0 -250 350 0 350 0 0 250 0 250 -350 0 -350 0 0 -250z
m184 114 c19 -19 22 -134 4 -152 -18 -18 -56 -14 -68 7 -5 11 -10 44 -10 75 0
55 16 86 45 86 7 0 21 -7 29 -16z m390 0 c19 -18 22 -114 6 -145 -12 -21 -50
-25 -68 -7 -18 18 -15 133 4 152 8 9 22 16 29 16 7 0 21 -7 29 -16z m-292
-181 c31 -65 109 -68 138 -6 19 41 45 45 35 6 -10 -42 -47 -74 -93 -80 -37 -5
-45 -2 -77 30 -19 19 -35 44 -35 56 0 29 16 26 32 -6z"/>
</g>
</svg>
